STARTFONT 2.1
COMMENT
COMMENT 3x3 font created by WeegeeNumbuh1 as an exercise in the absolute smallest font possible.
COMMENT
FONT -NMRFoundry-3by3-Medium-R-Normal--4-40-72-72-P-32-ISO10646-1
SIZE 4 72 72
FONTBOUNDINGBOX 3 3 0 0
STARTPROPERTIES 20
FOUNDRY "NMRFoundry"
FAMILY_NAME "3by3"
WEIGHT_NAME "Medium"
SLANT "R"
SETWIDTH_NAME "Normal"
ADD_STYLE_NAME ""
PIXEL_SIZE 4
POINT_SIZE 40
RESOLUTION_X 72
RESOLUTION_Y 72
SPACING "P"
AVERAGE_WIDTH 32
CHARSET_REGISTRY "ISO10646"
CHARSET_ENCODING "1"
FONT_ASCENT 3
FONT_DESCENT 0
COPYRIGHT "WeegeeNumbuh1"
_GBDFED_INFO "Edited with gbdfed 1.6."
ENDPROPERTIES
CHARS 139
STARTCHAR 0020
ENCODING 32
SWIDTH 1000 0
DWIDTH 4 0
BBX 0 0 0 0
BITMAP
ENDCHAR
STARTCHAR 0021
ENCODING 33
SWIDTH 1000 0
DWIDTH 4 0
BBX 1 2 1 1
BITMAP
80
80
ENDCHAR
STARTCHAR 0022
ENCODING 34
SWIDTH 1000 0
DWIDTH 4 0
BBX 3 2 0 1
BITMAP
A0
A0
ENDCHAR
STARTCHAR char35
ENCODING 35
SWIDTH 1000 0
DWIDTH 4 0
BBX 3 3 0 0
BITMAP
A0
00
A0
ENDCHAR
STARTCHAR char36
ENCODING 36
SWIDTH 1000 0
DWIDTH 4 0
BBX 3 3 0 0
BITMAP
60
40
C0
ENDCHAR
STARTCHAR char37
ENCODING 37
SWIDTH 1000 0
DWIDTH 4 0
BBX 3 3 0 0
BITMAP
A0
40
A0
ENDCHAR
STARTCHAR char38
ENCODING 38
SWIDTH 1000 0
DWIDTH 4 0
BBX 3 3 0 0
BITMAP
E0
C0
E0
ENDCHAR
STARTCHAR 0027
ENCODING 39
SWIDTH 1000 0
DWIDTH 4 0
BBX 1 2 0 1
BITMAP
80
80
ENDCHAR
STARTCHAR 0028
ENCODING 40
SWIDTH 500 0
DWIDTH 2 0
BBX 2 3 0 0
BITMAP
C0
80
C0
ENDCHAR
STARTCHAR 0029
ENCODING 41
SWIDTH 750 0
DWIDTH 3 0
BBX 2 3 1 0
BITMAP
C0
40
C0
ENDCHAR
STARTCHAR 002A
ENCODING 42
SWIDTH 1000 0
DWIDTH 4 0
BBX 2 2 0 1
BITMAP
C0
C0
ENDCHAR
STARTCHAR 002B
ENCODING 43
SWIDTH 1000 0
DWIDTH 4 0
BBX 3 3 0 0
BITMAP
40
E0
40
ENDCHAR
STARTCHAR 002C
ENCODING 44
SWIDTH 1000 0
DWIDTH 4 0
BBX 2 2 0 0
BITMAP
40
80
ENDCHAR
STARTCHAR 002D
ENCODING 45
SWIDTH 1000 0
DWIDTH 4 0
BBX 3 1 0 1
BITMAP
E0
ENDCHAR
STARTCHAR 002E
ENCODING 46
SWIDTH 1000 0
DWIDTH 4 0
BBX 1 1 1 0
BITMAP
80
ENDCHAR
STARTCHAR 002F
ENCODING 47
SWIDTH 1000 0
DWIDTH 4 0
BBX 3 3 0 0
BITMAP
20
40
80
ENDCHAR
STARTCHAR 0030
ENCODING 48
SWIDTH 1000 0
DWIDTH 4 0
BBX 3 3 0 0
BITMAP
60
A0
C0
ENDCHAR
STARTCHAR 0031
ENCODING 49
SWIDTH 1000 0
DWIDTH 4 0
BBX 1 3 1 0
BITMAP
80
80
80
ENDCHAR
STARTCHAR 0032
ENCODING 50
SWIDTH 1000 0
DWIDTH 4 0
BBX 3 3 0 0
BITMAP
C0
40
60
ENDCHAR
STARTCHAR 0033
ENCODING 51
SWIDTH 1000 0
DWIDTH 4 0
BBX 3 3 0 0
BITMAP
E0
60
E0
ENDCHAR
STARTCHAR 0034
ENCODING 52
SWIDTH 1000 0
DWIDTH 4 0
BBX 3 3 0 0
BITMAP
A0
E0
20
ENDCHAR
STARTCHAR 0035
ENCODING 53
SWIDTH 1000 0
DWIDTH 4 0
BBX 3 3 0 0
BITMAP
60
40
C0
ENDCHAR
STARTCHAR 0036
ENCODING 54
SWIDTH 1000 0
DWIDTH 4 0
BBX 3 3 0 0
BITMAP
80
E0
E0
ENDCHAR
STARTCHAR 0037
ENCODING 55
SWIDTH 1000 0
DWIDTH 4 0
BBX 3 3 0 0
BITMAP
E0
20
20
ENDCHAR
STARTCHAR 0038
ENCODING 56
SWIDTH 1000 0
DWIDTH 4 0
BBX 3 3 0 0
BITMAP
60
E0
C0
ENDCHAR
STARTCHAR 0039
ENCODING 57
SWIDTH 1000 0
DWIDTH 4 0
BBX 3 3 0 0
BITMAP
E0
E0
20
ENDCHAR
STARTCHAR 003A
ENCODING 58
SWIDTH 1000 0
DWIDTH 4 0
BBX 1 3 1 0
BITMAP
80
00
80
ENDCHAR
STARTCHAR 003B
ENCODING 59
SWIDTH 1000 0
DWIDTH 4 0
BBX 2 3 0 0
BITMAP
40
00
C0
ENDCHAR
STARTCHAR 003C
ENCODING 60
SWIDTH 1000 0
DWIDTH 4 0
BBX 2 3 1 0
BITMAP
40
80
40
ENDCHAR
STARTCHAR 003D
ENCODING 61
SWIDTH 1000 0
DWIDTH 4 0
BBX 3 3 0 0
BITMAP
E0
00
E0
ENDCHAR
STARTCHAR 003E
ENCODING 62
SWIDTH 1000 0
DWIDTH 4 0
BBX 2 3 0 0
BITMAP
80
40
80
ENDCHAR
STARTCHAR 003F
ENCODING 63
SWIDTH 1000 0
DWIDTH 4 0
BBX 3 3 0 0
BITMAP
E0
60
40
ENDCHAR
STARTCHAR char64
ENCODING 64
SWIDTH 1000 0
DWIDTH 4 0
BBX 3 3 0 0
BITMAP
C0
C0
60
ENDCHAR
STARTCHAR 0041
ENCODING 65
SWIDTH 1000 0
DWIDTH 4 0
BBX 3 3 0 0
BITMAP
60
E0
A0
ENDCHAR
STARTCHAR 0042
ENCODING 66
SWIDTH 1000 0
DWIDTH 4 0
BBX 3 3 0 0
BITMAP
C0
E0
E0
ENDCHAR
STARTCHAR 0043
ENCODING 67
SWIDTH 1000 0
DWIDTH 4 0
BBX 3 3 0 0
BITMAP
E0
80
E0
ENDCHAR
STARTCHAR 0044
ENCODING 68
SWIDTH 1000 0
DWIDTH 4 0
BBX 3 3 0 0
BITMAP
C0
A0
C0
ENDCHAR
STARTCHAR 0045
ENCODING 69
SWIDTH 1000 0
DWIDTH 4 0
BBX 3 3 0 0
BITMAP
E0
C0
E0
ENDCHAR
STARTCHAR 0046
ENCODING 70
SWIDTH 1000 0
DWIDTH 4 0
BBX 3 3 0 0
BITMAP
E0
C0
80
ENDCHAR
STARTCHAR 0047
ENCODING 71
SWIDTH 1000 0
DWIDTH 4 0
BBX 3 3 0 0
BITMAP
E0
A0
60
ENDCHAR
STARTCHAR 0048
ENCODING 72
SWIDTH 1000 0
DWIDTH 4 0
BBX 3 3 0 0
BITMAP
A0
E0
A0
ENDCHAR
STARTCHAR 0049
ENCODING 73
SWIDTH 1000 0
DWIDTH 4 0
BBX 3 3 0 0
BITMAP
E0
40
E0
ENDCHAR
STARTCHAR 004A
ENCODING 74
SWIDTH 1000 0
DWIDTH 4 0
BBX 3 3 0 0
BITMAP
60
20
E0
ENDCHAR
STARTCHAR 004B
ENCODING 75
SWIDTH 1000 0
DWIDTH 4 0
BBX 3 3 0 0
BITMAP
A0
C0
A0
ENDCHAR
STARTCHAR 004C
ENCODING 76
SWIDTH 1000 0
DWIDTH 4 0
BBX 3 3 0 0
BITMAP
80
80
E0
ENDCHAR
STARTCHAR 004D
ENCODING 77
SWIDTH 1000 0
DWIDTH 4 0
BBX 3 3 0 0
BITMAP
E0
E0
A0
ENDCHAR
STARTCHAR 004E
ENCODING 78
SWIDTH 1000 0
DWIDTH 4 0
BBX 3 3 0 0
BITMAP
E0
A0
A0
ENDCHAR
STARTCHAR 004F
ENCODING 79
SWIDTH 1000 0
DWIDTH 4 0
BBX 3 3 0 0
BITMAP
E0
A0
E0
ENDCHAR
STARTCHAR 0050
ENCODING 80
SWIDTH 1000 0
DWIDTH 4 0
BBX 3 3 0 0
BITMAP
E0
E0
80
ENDCHAR
STARTCHAR 0051
ENCODING 81
SWIDTH 1000 0
DWIDTH 4 0
BBX 3 3 0 0
BITMAP
E0
A0
C0
ENDCHAR
STARTCHAR 0052
ENCODING 82
SWIDTH 1000 0
DWIDTH 4 0
BBX 3 3 0 0
BITMAP
E0
C0
A0
ENDCHAR
STARTCHAR 0053
ENCODING 83
SWIDTH 1000 0
DWIDTH 4 0
BBX 3 3 0 0
BITMAP
60
40
C0
ENDCHAR
STARTCHAR 0054
ENCODING 84
SWIDTH 1000 0
DWIDTH 4 0
BBX 3 3 0 0
BITMAP
E0
40
40
ENDCHAR
STARTCHAR 0055
ENCODING 85
SWIDTH 1000 0
DWIDTH 4 0
BBX 3 3 0 0
BITMAP
A0
A0
E0
ENDCHAR
STARTCHAR 0056
ENCODING 86
SWIDTH 1000 0
DWIDTH 4 0
BBX 3 3 0 0
BITMAP
A0
A0
40
ENDCHAR
STARTCHAR 0057
ENCODING 87
SWIDTH 1000 0
DWIDTH 4 0
BBX 3 3 0 0
BITMAP
A0
E0
E0
ENDCHAR
STARTCHAR 0058
ENCODING 88
SWIDTH 1000 0
DWIDTH 4 0
BBX 3 3 0 0
BITMAP
A0
40
A0
ENDCHAR
STARTCHAR 0059
ENCODING 89
SWIDTH 1000 0
DWIDTH 4 0
BBX 3 3 0 0
BITMAP
A0
60
E0
ENDCHAR
STARTCHAR 005A
ENCODING 90
SWIDTH 1000 0
DWIDTH 4 0
BBX 3 3 0 0
BITMAP
C0
40
60
ENDCHAR
STARTCHAR 005B
ENCODING 91
SWIDTH 750 0
DWIDTH 3 0
BBX 2 3 1 0
BITMAP
C0
80
C0
ENDCHAR
STARTCHAR 005C
ENCODING 92
SWIDTH 1000 0
DWIDTH 4 0
BBX 3 3 0 0
BITMAP
80
40
20
ENDCHAR
STARTCHAR 005D
ENCODING 93
SWIDTH 500 0
DWIDTH 2 0
BBX 2 3 0 0
BITMAP
C0
40
C0
ENDCHAR
STARTCHAR 005E
ENCODING 94
SWIDTH 1000 0
DWIDTH 4 0
BBX 3 2 0 1
BITMAP
40
A0
ENDCHAR
STARTCHAR 005F
ENCODING 95
SWIDTH 1000 0
DWIDTH 4 0
BBX 3 1 0 0
BITMAP
E0
ENDCHAR
STARTCHAR 0060
ENCODING 96
SWIDTH 1000 0
DWIDTH 4 0
BBX 2 2 0 1
BITMAP
80
40
ENDCHAR
STARTCHAR 0061
ENCODING 97
SWIDTH 1000 0
DWIDTH 4 0
BBX 3 3 0 0
BITMAP
60
A0
60
ENDCHAR
STARTCHAR 0062
ENCODING 98
SWIDTH 1000 0
DWIDTH 4 0
BBX 3 3 0 0
BITMAP
80
E0
E0
ENDCHAR
STARTCHAR 0063
ENCODING 99
SWIDTH 1000 0
DWIDTH 4 0
BBX 3 3 0 0
BITMAP
E0
80
E0
ENDCHAR
STARTCHAR 0064
ENCODING 100
SWIDTH 1000 0
DWIDTH 4 0
BBX 3 3 0 0
BITMAP
20
E0
E0
ENDCHAR
STARTCHAR 0065
ENCODING 101
SWIDTH 1000 0
DWIDTH 4 0
BBX 3 2 0 0
BITMAP
C0
E0
ENDCHAR
STARTCHAR 0066
ENCODING 102
SWIDTH 1000 0
DWIDTH 4 0
BBX 3 3 0 0
BITMAP
E0
C0
80
ENDCHAR
STARTCHAR 0067
ENCODING 103
SWIDTH 1000 0
DWIDTH 4 0
BBX 3 3 0 0
BITMAP
E0
E0
60
ENDCHAR
STARTCHAR 0068
ENCODING 104
SWIDTH 1000 0
DWIDTH 4 0
BBX 3 3 0 0
BITMAP
80
E0
A0
ENDCHAR
STARTCHAR 0069
ENCODING 105
SWIDTH 1000 0
DWIDTH 4 0
BBX 1 2 1 0
BITMAP
80
80
ENDCHAR
STARTCHAR 006A
ENCODING 106
SWIDTH 1000 0
DWIDTH 4 0
BBX 3 3 0 0
BITMAP
E0
40
C0
ENDCHAR
STARTCHAR 006B
ENCODING 107
SWIDTH 1000 0
DWIDTH 4 0
BBX 3 3 0 0
BITMAP
A0
C0
A0
ENDCHAR
STARTCHAR 006C
ENCODING 108
SWIDTH 1000 0
DWIDTH 4 0
BBX 2 3 1 0
BITMAP
80
80
C0
ENDCHAR
STARTCHAR 006D
ENCODING 109
SWIDTH 1000 0
DWIDTH 4 0
BBX 3 3 0 0
BITMAP
E0
E0
A0
ENDCHAR
STARTCHAR 006E
ENCODING 110
SWIDTH 1000 0
DWIDTH 4 0
BBX 3 3 0 0
BITMAP
E0
A0
A0
ENDCHAR
STARTCHAR 006F
ENCODING 111
SWIDTH 1000 0
DWIDTH 4 0
BBX 3 3 0 0
BITMAP
E0
A0
E0
ENDCHAR
STARTCHAR 0070
ENCODING 112
SWIDTH 1000 0
DWIDTH 4 0
BBX 3 3 0 0
BITMAP
E0
E0
80
ENDCHAR
STARTCHAR 0071
ENCODING 113
SWIDTH 1000 0
DWIDTH 4 0
BBX 3 3 0 0
BITMAP
E0
E0
20
ENDCHAR
STARTCHAR 0072
ENCODING 114
SWIDTH 1000 0
DWIDTH 4 0
BBX 3 3 0 0
BITMAP
E0
80
80
ENDCHAR
STARTCHAR 0073
ENCODING 115
SWIDTH 1000 0
DWIDTH 4 0
BBX 3 3 0 0
BITMAP
60
40
C0
ENDCHAR
STARTCHAR 0074
ENCODING 116
SWIDTH 1000 0
DWIDTH 4 0
BBX 3 3 0 0
BITMAP
E0
40
60
ENDCHAR
STARTCHAR 0075
ENCODING 117
SWIDTH 1000 0
DWIDTH 4 0
BBX 3 3 0 0
BITMAP
A0
A0
E0
ENDCHAR
STARTCHAR 0076
ENCODING 118
SWIDTH 1000 0
DWIDTH 4 0
BBX 3 3 0 0
BITMAP
A0
A0
40
ENDCHAR
STARTCHAR 0077
ENCODING 119
SWIDTH 1000 0
DWIDTH 4 0
BBX 3 3 0 0
BITMAP
A0
E0
E0
ENDCHAR
STARTCHAR 0078
ENCODING 120
SWIDTH 1000 0
DWIDTH 4 0
BBX 3 3 0 0
BITMAP
A0
40
A0
ENDCHAR
STARTCHAR 0079
ENCODING 121
SWIDTH 1000 0
DWIDTH 4 0
BBX 3 3 0 0
BITMAP
A0
60
20
ENDCHAR
STARTCHAR 007A
ENCODING 122
SWIDTH 1000 0
DWIDTH 4 0
BBX 3 3 0 0
BITMAP
C0
40
60
ENDCHAR
STARTCHAR char123
ENCODING 123
SWIDTH 1000 0
DWIDTH 4 0
BBX 3 3 0 0
BITMAP
60
C0
60
ENDCHAR
STARTCHAR 007C
ENCODING 124
SWIDTH 500 0
DWIDTH 2 0
BBX 1 3 1 0
BITMAP
80
80
80
ENDCHAR
STARTCHAR char125
ENCODING 125
SWIDTH 1000 0
DWIDTH 4 0
BBX 3 3 0 0
BITMAP
C0
60
C0
ENDCHAR
STARTCHAR char126
ENCODING 126
SWIDTH 1000 0
DWIDTH 4 0
BBX 3 3 0 0
BITMAP
20
E0
80
ENDCHAR
STARTCHAR char176
ENCODING 176
SWIDTH 1000 0
DWIDTH 4 0
BBX 2 2 1 1
BITMAP
C0
C0
ENDCHAR
STARTCHAR 040F
ENCODING 1039
SWIDTH 1000 0
DWIDTH 4 0
BBX 3 3 0 0
BITMAP
A0
E0
40
ENDCHAR
STARTCHAR 0410
ENCODING 1040
SWIDTH 1000 0
DWIDTH 4 0
BBX 3 3 0 0
BITMAP
40
E0
A0
ENDCHAR
STARTCHAR 0411
ENCODING 1041
SWIDTH 1000 0
DWIDTH 4 0
BBX 3 3 0 0
BITMAP
E0
80
E0
ENDCHAR
STARTCHAR 0412
ENCODING 1042
SWIDTH 1000 0
DWIDTH 4 0
BBX 3 3 0 0
BITMAP
C0
E0
E0
ENDCHAR
STARTCHAR 0413
ENCODING 1043
SWIDTH 1000 0
DWIDTH 4 0
BBX 3 3 0 0
BITMAP
E0
80
80
ENDCHAR
STARTCHAR 0414
ENCODING 1044
SWIDTH 1000 0
DWIDTH 4 0
BBX 3 3 0 0
BITMAP
E0
E0
A0
ENDCHAR
STARTCHAR 0415
ENCODING 1045
SWIDTH 1000 0
DWIDTH 4 0
BBX 3 3 0 0
BITMAP
E0
C0
E0
ENDCHAR
STARTCHAR 0416
ENCODING 1046
SWIDTH 1000 0
DWIDTH 4 0
BBX 3 3 0 0
BITMAP
A0
40
A0
ENDCHAR
STARTCHAR 0417
ENCODING 1047
SWIDTH 1000 0
DWIDTH 4 0
BBX 3 3 0 0
BITMAP
E0
60
E0
ENDCHAR
STARTCHAR 0418
ENCODING 1048
SWIDTH 1000 0
DWIDTH 4 0
BBX 3 3 0 0
BITMAP
A0
E0
A0
ENDCHAR
STARTCHAR 041A
ENCODING 1050
SWIDTH 1000 0
DWIDTH 4 0
BBX 3 3 0 0
BITMAP
A0
C0
A0
ENDCHAR
STARTCHAR 041B
ENCODING 1051
SWIDTH 1000 0
DWIDTH 4 0
BBX 3 3 0 0
BITMAP
E0
A0
A0
ENDCHAR
STARTCHAR 041C
ENCODING 1052
SWIDTH 1000 0
DWIDTH 4 0
BBX 3 3 0 0
BITMAP
E0
E0
A0
ENDCHAR
STARTCHAR 041D
ENCODING 1053
SWIDTH 1000 0
DWIDTH 4 0
BBX 3 3 0 0
BITMAP
A0
E0
A0
ENDCHAR
STARTCHAR 041E
ENCODING 1054
SWIDTH 1000 0
DWIDTH 4 0
BBX 3 3 0 0
BITMAP
E0
A0
E0
ENDCHAR
STARTCHAR 041F
ENCODING 1055
SWIDTH 1000 0
DWIDTH 4 0
BBX 3 3 0 0
BITMAP
E0
A0
A0
ENDCHAR
STARTCHAR 0420
ENCODING 1056
SWIDTH 1000 0
DWIDTH 4 0
BBX 3 3 0 0
BITMAP
E0
E0
80
ENDCHAR
STARTCHAR 0421
ENCODING 1057
SWIDTH 1000 0
DWIDTH 4 0
BBX 3 3 0 0
BITMAP
E0
80
E0
ENDCHAR
STARTCHAR 0422
ENCODING 1058
SWIDTH 1000 0
DWIDTH 4 0
BBX 3 3 0 0
BITMAP
E0
40
40
ENDCHAR
STARTCHAR 0423
ENCODING 1059
SWIDTH 1000 0
DWIDTH 4 0
BBX 3 3 0 0
BITMAP
A0
E0
20
ENDCHAR
STARTCHAR 0424
ENCODING 1060
SWIDTH 1000 0
DWIDTH 4 0
BBX 3 3 0 0
BITMAP
40
E0
40
ENDCHAR
STARTCHAR 0425
ENCODING 1061
SWIDTH 1000 0
DWIDTH 4 0
BBX 3 3 0 0
BITMAP
A0
40
A0
ENDCHAR
STARTCHAR 0426
ENCODING 1062
SWIDTH 1000 0
DWIDTH 4 0
BBX 3 3 0 0
BITMAP
A0
E0
20
ENDCHAR
STARTCHAR 0427
ENCODING 1063
SWIDTH 1000 0
DWIDTH 4 0
BBX 3 3 0 0
BITMAP
A0
E0
20
ENDCHAR
STARTCHAR 0428
ENCODING 1064
SWIDTH 1000 0
DWIDTH 4 0
BBX 3 3 0 0
BITMAP
A0
E0
E0
ENDCHAR
STARTCHAR 0429
ENCODING 1065
SWIDTH 1000 0
DWIDTH 4 0
BBX 3 3 0 0
BITMAP
E0
E0
20
ENDCHAR
STARTCHAR 042A
ENCODING 1066
SWIDTH 1000 0
DWIDTH 4 0
BBX 3 3 0 0
BITMAP
C0
60
60
ENDCHAR
STARTCHAR 042C
ENCODING 1068
SWIDTH 1000 0
DWIDTH 4 0
BBX 3 3 0 0
BITMAP
80
E0
E0
ENDCHAR
STARTCHAR 042D
ENCODING 1069
SWIDTH 1000 0
DWIDTH 4 0
BBX 3 3 0 0
BITMAP
E0
60
E0
ENDCHAR
STARTCHAR 042E
ENCODING 1070
SWIDTH 1000 0
DWIDTH 4 0
BBX 3 3 0 0
BITMAP
A0
E0
A0
ENDCHAR
STARTCHAR 042F
ENCODING 1071
SWIDTH 1000 0
DWIDTH 4 0
BBX 3 3 0 0
BITMAP
E0
E0
A0
ENDCHAR
STARTCHAR 2018
ENCODING 8216
SWIDTH 500 0
DWIDTH 2 0
BBX 1 1 0 2
BITMAP
80
ENDCHAR
STARTCHAR 2019
ENCODING 8217
SWIDTH 500 0
DWIDTH 2 0
BBX 1 1 0 2
BITMAP
80
ENDCHAR
STARTCHAR 201C
ENCODING 8220
SWIDTH 750 0
DWIDTH 3 0
BBX 2 1 0 2
BITMAP
C0
ENDCHAR
STARTCHAR 201D
ENCODING 8221
SWIDTH 750 0
DWIDTH 3 0
BBX 2 1 0 2
BITMAP
C0
ENDCHAR
STARTCHAR char9650
ENCODING 9650
SWIDTH 1000 0
DWIDTH 4 0
BBX 3 2 0 1
BITMAP
40
E0
ENDCHAR
STARTCHAR char9654
ENCODING 9654
SWIDTH 1000 0
DWIDTH 4 0
BBX 2 3 1 0
BITMAP
80
40
80
ENDCHAR
STARTCHAR char9660
ENCODING 9660
SWIDTH 1000 0
DWIDTH 4 0
BBX 3 2 0 0
BITMAP
E0
40
ENDCHAR
STARTCHAR char9664
ENCODING 9664
SWIDTH 1000 0
DWIDTH 4 0
BBX 2 3 0 0
BITMAP
40
80
40
ENDCHAR
STARTCHAR char9698
ENCODING 9698
SWIDTH 1000 0
DWIDTH 4 0
BBX 2 2 1 0
BITMAP
40
C0
ENDCHAR
STARTCHAR char9699
ENCODING 9699
SWIDTH 1000 0
DWIDTH 4 0
BBX 2 2 0 0
BITMAP
80
C0
ENDCHAR
STARTCHAR char9700
ENCODING 9700
SWIDTH 1000 0
DWIDTH 4 0
BBX 2 2 0 1
BITMAP
C0
80
ENDCHAR
STARTCHAR char9701
ENCODING 9701
SWIDTH 1000 0
DWIDTH 4 0
BBX 2 2 1 1
BITMAP
C0
40
ENDCHAR
ENDFONT
